<?xml version="1.0" encoding="UTF-8"?>
<svg version="1.1" xmlns="http://www.w3.org/2000/svg" width="32" height="32">
<path d="M0 0 C4.61581142 2.18643699 6.72864085 4.49599804 9 9 C9.82885269 14.54808604 9.7240695 19.47140883 7.3125 24.5625 C4.21064779 27.8320199 1.61649202 29.75850523 -2.90234375 30.43359375 C-9.05071801 30.44150672 -13.31314296 30.4465054 -18 26 C-21.88937897 20.55860924 -21.79042609 15.48149391 -21 9 C-16.63929544 -0.20593186 -9.3488659 -1.1401056 0 0 Z M-13 11 C-13.07148199 12.35243917 -13.08399454 13.70834367 -13.0625 15.0625 C-13.041875 16.361875 -13.02125 17.66125 -13 19 C-8.24895289 20.96994636 -5.02174105 21.08312062 0 20 C1.19695276 19.02089415 1.19695276 19.02089415 1.1328125 17.1875 C1.13023438 16.465625 1.12765625 15.74375 1.125 15 C1.12757812 14.278125 1.13015625 13.55625 1.1328125 12.8125 C1.19695276 10.97910585 1.19695276 10.97910585 0 10 C-1.99799572 9.90126184 -3.99957158 9.87028201 -6 9.875 C-7.093125 9.87242188 -8.18625 9.86984375 -9.3125 9.8671875 C-11.91830354 9.69452245 -11.91830354 9.69452245 -13 11 Z " fill="#298BFF" transform="translate(22,1)"/>
<path d="M0 0 C3.3 0 6.6 0 10 0 C10 0.66 10 1.32 10 2 C6.7 2 3.4 2 0 2 C0 1.34 0 0.68 0 0 Z " fill="#298BFF" transform="translate(11,15)"/>
<path d="M0 0 C3.3 0 6.6 0 10 0 C10 0.33 10 0.66 10 1 C6.7 1 3.4 1 0 1 C0 0.67 0 0.34 0 0 Z " fill="#298BFF" transform="translate(11,13)"/>
<path d="M0 0 C1.98 0 3.96 0 6 0 C6 0.33 6 0.66 6 1 C4.02 1 2.04 1 0 1 C0 0.67 0 0.34 0 0 Z " fill="#2392FF" transform="translate(11,18)"/>
</svg>
